# Blender v2.93.0 OBJ File: ''
# www.blender.org
mtllib korytarz.mtl
o korytarz_Plane
v -5.001854 -1.584106 1.463495
v -5.001854 -1.584106 -1.536505
v -5.001854 1.514930 1.463495
v -5.001854 1.514930 -1.536505
v 4.998146 -1.584106 1.463495
v 4.998146 -1.584106 -1.536505
v 4.998146 1.514930 1.463495
v 4.998146 1.514930 -1.536505
v -4.001854 1.514930 -1.536505
v -3.001854 1.514930 -1.536505
v -2.025650 1.846558 -1.824339
v -1.002796 1.783831 -1.786896
v 0.001026 1.768501 -1.767705
v 0.998146 1.646907 -1.668482
v 1.997118 1.571010 -1.591501
v 2.998690 1.539792 -1.560983
v 3.998146 1.514930 -1.536505
v 3.998146 -1.584106 -1.536505
v 2.998228 -1.584106 -1.537731
v 2.012986 -1.584106 -1.841351
v 0.989896 -1.584106 -1.631005
v -0.002117 -1.584106 -1.665466
v -1.005178 -1.584106 -1.745884
v -2.005647 -1.584106 -1.611010
v -3.001854 -1.584106 -1.536505
v -4.001854 -1.584106 -1.536505
v 3.998146 -1.584106 1.463495
v 3.003436 -1.584106 1.489674
v 2.031159 -1.584106 1.612810
v 1.024727 -1.584106 1.865740
v -0.001710 -1.584106 2.054550
v -1.032966 -1.584106 2.014284
v -2.015447 -1.584106 1.834425
v -3.040027 -1.584106 1.721035
v -4.002983 -1.584106 1.476944
v -4.002468 1.521758 1.469270
v -3.014848 1.642003 1.589548
v -2.011203 1.808973 1.708972
v -0.986970 1.810086 1.745619
v -0.034880 1.081894 1.270987
v 1.040091 1.582555 1.607144
v 2.052074 1.741067 1.675973
v 3.048057 1.759913 1.695477
v 3.998146 1.514930 1.463495
v -5.001854 0.514930 1.463495
v -5.001854 -0.485070 1.463495
v 4.998146 0.514930 1.463495
v 4.998146 -0.485070 1.463495
v -4.001854 -0.485070 1.463495
v -4.001866 0.514938 1.463632
v -3.014947 -0.505713 1.910812
v -3.031072 0.561759 2.016811
v -1.993846 -0.541880 1.979069
v -1.990562 0.515398 2.098326
v -0.989835 -0.604320 2.520767
v -0.973649 0.536053 2.264610
v -0.011241 -0.480079 1.985817
v 0.030683 0.422282 1.709085
v 1.028549 -0.478399 2.140238
v 1.077773 0.552846 2.039855
v 2.083142 -0.493234 2.090729
v 2.088229 0.561280 2.010435
v 3.000126 -0.487997 1.488075
v 2.999616 0.515318 1.484021
v 3.998146 -0.485070 1.463495
v 3.998146 0.514930 1.463495
v -5.001854 -0.485070 -1.536505
v -5.001854 0.514930 -1.536505
v 4.998146 -0.485070 -1.536505
v 4.998146 0.514930 -1.536505
v -4.001854 0.514930 -1.536505
v -4.001854 -0.485070 -1.536505
v -3.002687 0.515792 -1.590169
v -3.001915 -0.485049 -1.537708
v -2.013675 0.528601 -1.914452
v -2.019119 -0.479223 -1.980721
v -1.002459 0.515610 -1.555766
v -1.006285 -0.478915 -1.928046
v -0.001831 0.515833 -1.537442
v -0.001857 -0.493138 -1.701825
v 0.997838 0.522977 -1.697754
v 0.901503 -0.486731 -2.298688
v 1.980758 0.612571 -2.398566
v 2.010103 -0.494929 -2.070104
v 2.998552 0.514682 -1.664041
v 3.000067 -0.485695 -1.595895
v 3.998146 0.514930 -1.536505
v 3.998146 -0.485070 -1.536505
v -5.001854 1.514930 -0.536505
v -5.001854 1.514930 0.463495
v 4.998146 1.514930 -0.536505
v 4.998146 1.514930 0.463495
v -4.001854 1.514930 0.463495
v -4.001854 1.514930 -0.536505
v -3.001854 1.514930 0.463495
v -3.001854 1.519753 -0.536505
v -2.001854 1.514930 0.463495
v -2.004501 1.810685 -0.536478
v -1.011325 1.470021 0.462376
v -1.001067 1.687575 -0.583556
v -0.002808 1.152260 0.447276
v -0.001854 1.586670 -0.553824
v 0.998069 1.621423 0.464733
v 0.998146 1.519170 -0.540752
v 1.998149 1.670464 0.463514
v 1.998146 1.518813 -0.536505
v 2.998146 1.514930 0.463495
v 2.998146 1.620638 -0.536505
v 3.998146 1.514930 0.463495
v 3.998146 1.514930 -0.536505
v -5.001854 -1.584106 0.463495
v -5.001854 -1.584106 -0.536505
v 4.998146 -1.584106 0.463495
v 4.998146 -1.584106 -0.536505
v -4.001854 -1.584106 -0.536505
v -4.001854 -1.584106 0.463495
v -3.001854 -1.584106 -0.536505
v -3.001854 -1.584106 0.463495
v -2.001854 -1.584106 -0.536505
v -2.001854 -1.584106 0.463495
v -1.001857 -1.584106 -0.536913
v -1.001854 -1.584106 0.463495
v -0.001879 -1.584106 -0.541926
v -0.001854 -1.584106 0.463548
v 0.998146 -1.584106 -0.536505
v 0.998146 -1.584106 0.463983
v 1.998454 -1.584106 -0.541111
v 1.998394 -1.584106 0.464724
v 2.998146 -1.584106 -0.536505
v 2.998146 -1.584106 0.463495
v 3.998146 -1.584106 -0.536505
v 3.998146 -1.584106 0.463495
vt 0.000000 0.000000
vt 0.000000 0.000000
vt 0.000000 0.000000
vt 0.000000 0.000000
vt 0.000000 0.000000
vt 0.000000 0.000000
vt 0.000000 0.000000
vt 0.000000 0.000000
vt 0.000000 0.000000
vt 0.000000 0.000000
vt 0.000000 0.000000
vt 0.000000 0.000000
vt 0.000000 0.000000
vt 0.000000 0.000000
vt 0.000000 0.000000
vt 0.000000 0.000000
vt 0.000000 0.000000
vt 0.000000 0.000000
vt 0.000000 0.000000
vt 0.000000 0.000000
vt 0.000000 0.000000
vt 0.000000 0.000000
vt 0.000000 0.000000
vt 0.000000 0.000000
vt 0.000000 0.000000
vt 0.000000 0.000000
vt 0.000000 0.000000
vt 0.000000 0.000000
vt 0.000000 0.000000
vt 0.000000 0.000000
vt 0.000000 0.000000
vt 0.000000 0.000000
vt 0.000000 0.000000
vt 0.000000 0.000000
vt 0.000000 0.000000
vt 0.000000 0.000000
vt 0.000000 0.000000
vt 0.000000 0.000000
vt 0.000000 0.000000
vt 0.000000 0.000000
vt 0.000000 0.000000
vt 0.000000 0.000000
vt 0.000000 0.000000
vt 0.000000 0.000000
vt 0.000000 0.000000
vt 0.000000 0.000000
vt 0.000000 0.000000
vt 0.000000 0.000000
vt 0.000000 0.000000
vt 0.000000 0.000000
vt 0.000000 0.000000
vt 0.000000 0.000000
vt 0.000000 0.000000
vt 0.000000 0.000000
vt 0.000000 0.000000
vt 0.000000 0.000000
vt 0.000000 0.000000
vt 0.000000 0.000000
vt 0.000000 0.000000
vt 0.000000 0.000000
vt 0.000000 0.000000
vt 0.000000 0.000000
vt 0.000000 0.000000
vt 0.000000 0.000000
vt 0.000000 0.000000
vt 0.000000 0.000000
vt 0.000000 0.000000
vt 0.000000 0.000000
vt 0.000000 0.000000
vt 0.000000 0.000000
vt 0.000000 0.000000
vt 0.000000 0.000000
vt 0.000000 0.000000
vt 0.000000 0.000000
vt 0.000000 0.000000
vt 0.000000 0.000000
vt 0.000000 0.000000
vt 0.000000 0.000000
vt 0.000000 0.000000
vt 0.000000 0.000000
vt 0.000000 0.000000
vt 0.000000 0.000000
vt 0.000000 0.000000
vt 0.000000 0.000000
vt 0.000000 0.000000
vt 0.000000 0.000000
vt 0.000000 0.000000
vt 0.000000 0.000000
vt 0.000000 0.000000
vt 0.000000 0.000000
vt 0.000000 0.000000
vt 0.000000 0.000000
vt 0.000000 0.000000
vt 0.000000 0.000000
vt 0.000000 0.000000
vt 0.000000 0.000000
vt 0.000000 0.000000
vt 0.000000 0.000000
vt 0.000000 0.000000
vt 0.000000 0.000000
vt 0.000000 0.000000
vt 0.000000 0.000000
vt 0.000000 0.000000
vt 0.000000 0.000000
vt 0.000000 0.000000
vt 0.000000 0.000000
vt 0.000000 0.000000
vt 0.000000 0.000000
vt 0.000000 0.000000
vt 0.000000 0.000000
vt 0.000000 0.000000
vt 0.000000 0.000000
vt 0.000000 0.000000
vt 0.000000 0.000000
vt 0.000000 0.000000
vt 0.000000 0.000000
vt 0.000000 0.000000
vt 0.000000 0.000000
vt 0.000000 0.000000
vt 0.000000 0.000000
vt 0.000000 0.000000
vt 0.000000 0.000000
vt 0.000000 0.000000
vt 0.000000 0.000000
vt 0.000000 0.000000
vt 0.000000 0.000000
vt 0.000000 0.000000
vt 0.000000 0.000000
vt 0.000000 0.000000
vt 0.000000 0.000000
vt 0.000000 0.000000
vt 0.000000 0.000000
vn 0.0000 0.0000 -1.0000
vn 0.0000 -1.0000 0.0000
vn 0.0000 1.0000 0.0000
vn 0.0000 0.0000 1.0000
vn -0.0067 0.0061 1.0000
vn -0.3340 -0.0721 0.9398
vn -0.0901 -0.1532 0.9841
vn -0.3356 -0.2790 0.8997
vn 0.2458 -0.2031 0.9478
vn 0.0166 -0.0927 0.9956
vn 0.1351 -0.3242 0.9363
vn 0.3514 -0.2067 0.9131
vn 0.0255 0.0008 0.9997
vn -0.0034 1.0000 -0.0034
vn -0.0565 0.9964 -0.0629
vn -0.0714 0.9820 -0.1750
vn 0.0254 0.9696 -0.2433
vn 0.4458 0.8881 -0.1120
vn -0.4300 0.9013 0.0523
vn -0.1023 0.9947 -0.0092
vn 0.0690 0.9890 -0.1306
vn 0.1109 0.9876 -0.1109
vn -0.0268 0.0268 -0.9993
vn -0.3061 0.0575 -0.9503
vn 0.1890 -0.0526 -0.9806
vn 0.0171 -0.1800 -0.9835
vn -0.0353 -0.0842 -0.9958
vn -0.2824 0.3595 -0.8894
vn 0.3481 0.3886 -0.8532
vn 0.0763 0.0507 -0.9958
vn 0.1161 -0.0956 0.9886
vn 0.0226 0.0020 0.9997
vn 0.2572 0.0477 0.9652
vn 0.5257 0.0337 0.8500
vn -0.0453 0.3263 0.9442
vn 0.0383 0.0852 0.9956
vn -0.3816 0.4050 0.8309
vn -0.2338 0.1967 0.9522
vn 0.5545 0.3872 0.7366
vn 0.4703 0.2102 0.8571
vn -0.0969 0.3308 0.9387
vn -0.3289 0.0616 0.9424
vn -0.1114 0.3231 0.9398
vn -0.0763 -0.1056 0.9915
vn -0.3337 0.1891 0.9235
vn -0.4540 -0.0492 0.8896
vn -0.0029 -0.0028 1.0000
vn -0.0001 -0.0001 1.0000
vn 0.0303 -0.0265 -0.9992
vn 0.0931 -0.0338 -0.9951
vn 0.3642 -0.1209 -0.9234
vn 0.5048 -0.1525 -0.8497
vn 0.0065 -0.3791 -0.9253
vn -0.2232 0.1314 -0.9659
vn -0.2700 -0.3047 -0.9134
vn -0.3489 0.3467 -0.8707
vn 0.1496 -0.0978 -0.9839
vn 0.1188 0.2567 -0.9592
vn -0.0395 -0.2423 -0.9694
vn 0.1960 0.2089 -0.9581
vn -0.2492 -0.1622 -0.9548
vn -0.3627 0.0072 -0.9319
vn -0.0006 -0.0005 -1.0000
vn -0.0274 -0.0262 -0.9993
vn 0.0656 0.9971 -0.0398
vn 0.0527 0.9972 0.0527
vn -0.0350 0.9993 -0.0138
vn 0.0268 0.9994 -0.0230
vn 0.0347 0.9960 0.0821
vn -0.0240 0.9918 -0.1256
vn 0.0862 0.9877 0.1307
vn -0.1966 0.9673 0.1600
vn 0.0548 0.9920 0.1141
vn 0.1927 0.9347 0.2987
vn 0.0915 0.9945 0.0519
vn 0.0873 0.9662 0.2427
vn -0.2987 0.9542 0.0157
vn -0.1426 0.9788 0.1473
vn -0.0024 1.0000 -0.0024
vn -0.0024 1.0000 0.0024
usemtl scainy
s off
f 87/1/1 17/2/1 8/3/1 70/4/1
f 131/5/2 18/6/2 6/7/2 114/8/2
f 109/9/3 44/10/3 7/11/3 92/12/3
f 65/13/4 27/14/4 5/15/4 48/16/4
f 46/17/5 1/18/5 35/19/5 49/20/5
f 49/20/6 35/19/6 34/21/6 51/22/6
f 51/22/7 34/21/7 33/23/7 53/24/7
f 53/24/8 33/23/8 32/25/8 55/26/8
f 55/26/9 32/25/9 31/27/9 57/28/9
f 57/28/10 31/27/10 30/29/10 59/30/10
f 59/30/11 30/29/11 29/31/11 61/32/11
f 61/32/12 29/31/12 28/33/12 63/34/12
f 63/34/13 28/33/13 27/14/13 65/13/13
f 90/35/14 3/36/14 36/37/14 93/38/14
f 93/38/15 36/37/15 37/39/15 95/40/15
f 95/40/16 37/39/16 38/41/16 97/42/16
f 97/42/17 38/41/17 39/43/17 99/44/17
f 99/44/18 39/43/18 40/45/18 101/46/18
f 101/46/19 40/45/19 41/47/19 103/48/19
f 103/48/20 41/47/20 42/49/20 105/50/20
f 105/50/21 42/49/21 43/51/21 107/52/21
f 107/52/22 43/51/22 44/10/22 109/9/22
f 112/53/2 2/54/2 26/55/2 115/56/2
f 115/56/2 26/55/2 25/57/2 117/58/2
f 117/58/2 25/57/2 24/59/2 119/60/2
f 119/60/2 24/59/2 23/61/2 121/62/2
f 121/62/2 23/61/2 22/63/2 123/64/2
f 123/64/2 22/63/2 21/65/2 125/66/2
f 125/66/2 21/65/2 20/67/2 127/68/2
f 127/68/2 20/67/2 19/69/2 129/70/2
f 129/70/2 19/69/2 18/6/2 131/5/2
f 68/71/1 4/72/1 9/73/1 71/74/1
f 71/74/23 9/73/23 10/75/23 73/76/23
f 73/76/24 10/75/24 11/77/24 75/78/24
f 75/78/25 11/77/25 12/79/25 77/80/25
f 77/80/26 12/79/26 13/81/26 79/82/26
f 79/82/27 13/81/27 14/83/27 81/84/27
f 81/84/28 14/83/28 15/85/28 83/86/28
f 83/86/29 15/85/29 16/87/29 85/88/29
f 85/88/30 16/87/30 17/2/30 87/1/30
f 43/51/31 64/89/31 66/90/31 44/10/31
f 64/89/32 63/34/32 65/13/32 66/90/32
f 42/49/33 62/91/33 64/89/33 43/51/33
f 62/91/34 61/32/34 63/34/34 64/89/34
f 41/47/35 60/92/35 62/91/35 42/49/35
f 60/92/36 59/30/36 61/32/36 62/91/36
f 40/45/37 58/93/37 60/92/37 41/47/37
f 58/93/38 57/28/38 59/30/38 60/92/38
f 39/43/39 56/94/39 58/93/39 40/45/39
f 56/94/40 55/26/40 57/28/40 58/93/40
f 38/41/41 54/95/41 56/94/41 39/43/41
f 54/95/42 53/24/42 55/26/42 56/94/42
f 37/39/43 52/96/43 54/95/43 38/41/43
f 52/96/44 51/22/44 53/24/44 54/95/44
f 36/37/45 50/97/45 52/96/45 37/39/45
f 50/97/46 49/20/46 51/22/46 52/96/46
f 3/36/47 45/98/47 50/97/47 36/37/47
f 45/98/48 46/17/48 49/20/48 50/97/48
f 44/10/4 66/90/4 47/99/4 7/11/4
f 66/90/4 65/13/4 48/16/4 47/99/4
f 19/69/49 86/100/49 88/101/49 18/6/49
f 86/100/50 85/88/50 87/1/50 88/101/50
f 20/67/51 84/102/51 86/100/51 19/69/51
f 84/102/52 83/86/52 85/88/52 86/100/52
f 21/65/53 82/103/53 84/102/53 20/67/53
f 82/103/54 81/84/54 83/86/54 84/102/54
f 22/63/55 80/104/55 82/103/55 21/65/55
f 80/104/56 79/82/56 81/84/56 82/103/56
f 23/61/57 78/105/57 80/104/57 22/63/57
f 78/105/58 77/80/58 79/82/58 80/104/58
f 24/59/59 76/106/59 78/105/59 23/61/59
f 76/106/60 75/78/60 77/80/60 78/105/60
f 25/57/61 74/107/61 76/106/61 24/59/61
f 74/107/62 73/76/62 75/78/62 76/106/62
f 26/55/63 72/108/63 74/107/63 25/57/63
f 72/108/64 71/74/64 73/76/64 74/107/64
f 2/54/1 67/109/1 72/108/1 26/55/1
f 67/109/1 68/71/1 71/74/1 72/108/1
f 18/6/1 88/101/1 69/110/1 6/7/1
f 88/101/1 87/1/1 70/4/1 69/110/1
f 16/87/65 108/111/65 110/112/65 17/2/65
f 108/111/66 107/52/66 109/9/66 110/112/66
f 15/85/67 106/113/67 108/111/67 16/87/67
f 106/113/68 105/50/68 107/52/68 108/111/68
f 14/83/69 104/114/69 106/113/69 15/85/69
f 104/114/70 103/48/70 105/50/70 106/113/70
f 13/81/71 102/115/71 104/114/71 14/83/71
f 102/115/72 101/46/72 103/48/72 104/114/72
f 12/79/73 100/116/73 102/115/73 13/81/73
f 100/116/74 99/44/74 101/46/74 102/115/74
f 11/77/75 98/117/75 100/116/75 12/79/75
f 98/117/76 97/42/76 99/44/76 100/116/76
f 10/75/77 96/118/77 98/117/77 11/77/77
f 96/118/78 95/40/78 97/42/78 98/117/78
f 9/73/79 94/119/79 96/118/79 10/75/79
f 94/119/80 93/38/80 95/40/80 96/118/80
f 4/72/3 89/120/3 94/119/3 9/73/3
f 89/120/3 90/35/3 93/38/3 94/119/3
f 17/2/3 110/112/3 91/121/3 8/3/3
f 110/112/3 109/9/3 92/12/3 91/121/3
f 28/33/2 130/122/2 132/123/2 27/14/2
f 130/122/2 129/70/2 131/5/2 132/123/2
f 29/31/2 128/124/2 130/122/2 28/33/2
f 128/124/2 127/68/2 129/70/2 130/122/2
f 30/29/2 126/125/2 128/124/2 29/31/2
f 126/125/2 125/66/2 127/68/2 128/124/2
f 31/27/2 124/126/2 126/125/2 30/29/2
f 124/126/2 123/64/2 125/66/2 126/125/2
f 32/25/2 122/127/2 124/126/2 31/27/2
f 122/127/2 121/62/2 123/64/2 124/126/2
f 33/23/2 120/128/2 122/127/2 32/25/2
f 120/128/2 119/60/2 121/62/2 122/127/2
f 34/21/2 118/129/2 120/128/2 33/23/2
f 118/129/2 117/58/2 119/60/2 120/128/2
f 35/19/2 116/130/2 118/129/2 34/21/2
f 116/130/2 115/56/2 117/58/2 118/129/2
f 1/18/2 111/131/2 116/130/2 35/19/2
f 111/131/2 112/53/2 115/56/2 116/130/2
f 27/14/2 132/123/2 113/132/2 5/15/2
f 132/123/2 131/5/2 114/8/2 113/132/2
