# Blender v2.93.0 OBJ File: ''
# www.blender.org
mtllib to jest korytarz trojkatny xd.mtl
o tunel_Sphere
v 0.000000 3.898076 0.000000
v 2.250000 0.000961 -0.000000
v -2.250000 0.000962 -0.000000
v 0.000000 3.898076 -9.000000
v 2.250000 0.000961 -9.000000
v -2.250000 0.000962 -9.000000
vt 0.000000 0.000000
vt 0.000000 0.000000
vt 0.000000 0.000000
vt 0.000000 0.000000
vt 0.000000 0.000000
vt 0.000000 0.000000
vn 0.8660 -0.5000 0.0000
vn 0.0000 1.0000 0.0000
vn -0.8660 -0.5000 0.0000
usemtl None
s off
f 1/1/1 3/2/1 6/3/1 4/4/1
f 3/2/2 2/5/2 5/6/2 6/3/2
f 2/5/3 1/1/3 4/4/3 5/6/3
o dziura_hehe_Sphere.002
v 0.000000 3.898076 0.000000
v 2.250000 0.000962 -0.000000
v -2.250000 0.000962 -0.000000
v 0.000000 3.898076 -9.000000
v 2.250000 0.000962 -9.000000
v -2.250000 0.000962 -9.000000
vt 0.000000 0.000000
vt 0.000000 0.000000
vt 0.000000 0.000000
vt 0.000000 0.000000
vt 0.000000 0.000000
vt 0.000000 0.000000
vn -0.8660 0.5000 0.0000
vn -0.0000 -1.0000 0.0000
vn 0.8660 0.5000 0.0000
vn -0.0000 -0.0000 1.0000
vn -0.0000 0.0000 -1.0000
usemtl None
s off
f 7/7/4 10/8/4 12/9/4 9/10/4
f 9/10/5 12/9/5 11/11/5 8/12/5
f 8/12/6 11/11/6 10/8/6 7/7/6
f 7/7/7 9/10/7 8/12/7
f 10/8/8 11/11/8 12/9/8
o Plane
v -13.000000 0.000000 13.000000
v 6.000000 0.000000 13.000000
v -13.000000 0.000000 0.000000
v 6.000000 0.000000 0.000000
v -13.000000 7.000000 13.000000
v 6.000000 7.000000 13.000000
v -13.000000 7.000000 0.000000
v 6.000000 7.000000 0.000000
v 0.000000 3.898076 0.000000
v 2.250000 0.000962 0.000000
v -2.250000 0.000962 0.000000
vt 0.000000 0.000000
vt 1.000000 0.000000
vt 1.000000 1.000000
vt 0.000000 1.000000
vt 0.000000 0.000000
vt 0.000000 1.000000
vt 1.000000 1.000000
vt 1.000000 0.000000
vt 0.684211 1.000000
vt 0.802631 1.000000
vt 0.565789 1.000000
vn 0.0000 1.0000 0.0000
vn 0.0000 -1.0000 0.0000
vn 0.0000 0.0000 -1.0000
vn -1.0000 0.0000 0.0000
vn 1.0000 0.0000 0.0000
vn 0.0000 0.0000 1.0000
usemtl None
s off
f 13/13/9 14/14/9 16/15/9 15/16/9
f 17/17/10 19/18/10 20/19/10 18/20/10
f 13/13/11 17/17/11 18/20/11 14/14/11
f 14/14/12 18/20/12 20/19/12 16/15/12
f 15/16/13 19/18/13 17/17/13 13/13/13
f 21/21/14 22/22/14 16/15/14 20/19/14
f 16/15/14 22/22/14 23/23/14 21/21/14 20/19/14 19/18/14 15/16/14
