# Blender v2.93.0 OBJ File: ''
# www.blender.org
mtllib tunnel_1.mtl
o Cube_Cube.001
v 0.000000 0.000000 3.000000
v 0.000000 3.000000 3.000000
v 0.000000 0.000000 0.000000
v 0.000000 3.000000 0.000000
v 9.000000 0.000000 3.000000
v 9.000010 3.000229 3.000215
v 9.000000 0.000000 0.000000
v 9.000000 3.000000 0.000000
v 8.000000 -0.001171 -0.001171
v 7.000000 -0.041884 -0.047949
v 5.996797 -0.044835 -0.057458
v 4.985073 -0.229909 -0.251818
v 4.014285 -0.023711 -0.093009
v 3.014698 0.043292 -0.000926
v 2.000000 -0.000029 -0.009496
v 1.000000 0.000000 0.000000
v 1.000000 3.023919 -0.023915
v 2.007309 3.048289 -0.038527
v 3.131143 2.721176 0.250404
v 4.070312 3.395608 -0.422341
v 5.086267 3.161200 -0.108601
v 5.883986 3.220576 -0.257057
v 6.983758 2.968385 0.101803
v 7.999678 2.998863 0.001527
v 1.001337 -0.026067 3.024696
v 2.007059 -0.129364 3.157659
v 2.992887 -0.115549 3.144210
v 3.996478 -0.065027 3.057615
v 4.996310 -0.096058 3.100815
v 6.002372 -0.095228 3.098371
v 7.001331 -0.071931 3.069928
v 8.000733 -0.028329 3.028329
v 8.006110 3.151401 3.142965
v 6.998596 3.115752 3.113040
v 6.056136 3.340972 3.400018
v 5.076899 3.497300 3.580074
v 4.088292 3.485909 3.493150
v 3.058313 3.331371 3.323992
v 1.987584 3.280700 3.269294
v 1.041719 2.831093 2.831252
v 0.000000 1.000000 3.000000
v 0.000000 2.000000 3.000000
v 9.000000 2.000000 3.000000
v 9.000000 1.000000 3.000000
v 8.005573 0.990565 3.060348
v 7.999275 2.002757 3.036341
v 7.037640 0.961807 3.706909
v 6.988838 2.035927 3.591797
v 6.023950 1.058898 3.182153
v 5.906339 2.101222 2.933823
v 5.001040 1.006586 3.507581
v 5.018385 2.058502 3.487222
v 3.980614 1.015394 3.290133
v 4.013221 2.037823 3.121305
v 3.000642 0.976466 3.460914
v 3.028457 2.009017 3.179444
v 2.013876 0.966484 3.372534
v 2.029295 1.992029 3.169202
v 1.000123 0.998902 3.002376
v 1.000000 2.000000 3.006046
v 0.000000 2.000000 0.000000
v 0.000000 1.000000 0.000000
v 9.000000 2.000000 0.000000
v 9.000000 1.000000 0.000000
v 1.000000 1.000000 -0.024107
v 1.000000 2.000000 -0.018684
v 2.000480 0.999870 -0.272200
v 2.000587 2.000449 -0.099662
v 3.021289 0.976182 -0.402425
v 3.002673 1.985805 -0.420218
v 4.017064 0.976182 -0.111499
v 4.037108 2.009522 -0.269827
v 4.971220 0.906789 -0.417510
v 5.077779 2.075021 -0.497083
v 5.997340 0.969996 -0.387332
v 5.964423 2.077362 -0.299446
v 7.000981 0.981076 -0.228305
v 6.939757 2.001235 0.225970
v 8.000000 1.000000 -0.006328
v 8.000000 2.000000 0.000000
v 0.000000 3.000000 2.000000
v 0.000000 3.000000 1.000000
v 9.000000 3.000000 1.000000
v 9.000000 3.000000 2.000000
v 8.000605 3.021024 2.008213
v 7.999999 3.028224 1.000000
v 7.012558 3.527444 2.017363
v 7.013749 3.320498 0.981345
v 6.034683 3.659828 2.044881
v 6.007083 3.516772 0.899229
v 5.017057 3.205002 2.018996
v 5.035434 3.699449 0.961434
v 4.007893 3.582259 2.023414
v 4.034427 3.385803 0.940479
v 3.023591 3.354916 1.998742
v 3.026436 2.929503 1.054898
v 1.997823 3.097013 2.003595
v 2.011088 3.217856 1.000383
v 1.000000 3.000000 2.000000
v 1.000011 3.007702 0.999839
v 0.000000 0.000000 1.000000
v 0.000000 0.000000 2.000000
v 9.000000 0.000000 2.000000
v 9.000000 0.000000 1.000000
v 1.000000 0.000000 2.000000
v 1.000000 0.000000 1.000000
v 2.000028 -0.000553 2.000524
v 2.000000 0.000000 1.000000
v 2.999923 -0.002302 2.001252
v 3.000144 -0.046105 1.000288
v 3.999989 -0.003592 2.000172
v 4.000081 -0.138110 1.000167
v 5.000000 0.000000 2.000000
v 4.999737 -0.009898 0.994723
v 6.000000 0.000000 2.000000
v 6.000000 0.000000 1.000000
v 7.000000 0.000000 2.000000
v 7.000000 0.000000 1.000000
v 8.000000 0.000000 2.000000
v 8.000000 0.000000 1.000000
vt 0.999191 0.549206
vt 0.888044 0.660191
vt 0.888080 0.549206
vt -0.000808 0.549206
vt 0.114938 0.641550
vt 0.110303 0.549206
vt 0.888161 0.332970
vt 0.999191 0.447229
vt 0.888080 0.447229
vt 0.114938 0.354868
vt -0.000808 0.447229
vt 0.110303 0.447229
vt 0.999192 0.336094
vt 0.888147 0.446316
vt 0.999191 0.447229
vt 0.888759 0.320233
vt 0.778364 0.445300
vt 0.776813 0.323558
vt 0.669711 0.442242
vt 0.672095 0.291671
vt 0.556642 0.445118
vt 0.563291 0.271665
vt 0.444513 0.444627
vt 0.453446 0.281324
vt 0.335146 0.447369
vt 0.339004 0.300119
vt 0.221172 0.446829
vt 0.220034 0.306196
vt -0.000808 0.336118
vt 0.110303 0.447229
vt -0.000808 0.447229
vt 0.110451 0.333374
vt 0.221417 0.447171
vt 0.222198 0.318600
vt 0.332516 0.447090
vt 0.331734 0.320095
vt 0.443634 0.447210
vt 0.443244 0.329716
vt 0.554747 0.447229
vt 0.554337 0.324916
vt 0.665858 0.447229
vt 0.666121 0.325188
vt 0.776969 0.447229
vt 0.777117 0.328348
vt 0.887999 0.549513
vt 0.999192 0.660343
vt 0.999191 0.549206
vt 0.775728 0.553198
vt 0.888759 0.677140
vt 0.655451 0.560453
vt 0.776813 0.673178
vt 0.556789 0.555706
vt 0.672095 0.698203
vt 0.445105 0.553409
vt 0.563291 0.715573
vt 0.335687 0.550208
vt 0.453446 0.714307
vt 0.224669 0.548321
vt 0.339004 0.697136
vt 0.220034 0.691506
vt 0.110303 0.549206
vt -0.000808 0.660317
vt -0.000808 0.549206
vt 0.221479 0.549256
vt 0.110303 0.662975
vt 0.332822 0.547629
vt 0.222226 0.665683
vt 0.447759 0.550264
vt 0.347096 0.629337
vt 0.563389 0.557542
vt 0.451448 0.704274
vt 0.661905 0.557802
vt 0.564332 0.678228
vt 0.770275 0.549343
vt 0.652967 0.684826
vt 0.775164 0.656804
vt 0.110451 0.324088
vt 0.222955 0.434371
vt 0.222198 0.312611
vt 0.110316 0.437973
vt 0.332596 0.435480
vt 0.331734 0.314146
vt 0.441482 0.439806
vt 0.443244 0.319759
vt 0.554862 0.438827
vt 0.554337 0.316311
vt 0.668519 0.444639
vt 0.666121 0.316403
vt 0.781151 0.433852
vt 0.777117 0.318992
vt 0.888699 0.437047
vt 0.888161 0.323837
vt 0.999191 0.438095
vt 0.999191 0.326984
vt -0.000808 0.326984
vt -0.000808 0.438095
vt 0.888080 0.326854
vt 0.777078 0.435993
vt 0.776969 0.322331
vt 0.888080 0.438095
vt 0.665562 0.434761
vt 0.665502 0.322003
vt 0.551549 0.427739
vt 0.553088 0.301439
vt 0.445532 0.435449
vt 0.445223 0.324350
vt 0.334890 0.435449
vt 0.334158 0.331795
vt 0.221467 0.438081
vt 0.221414 0.326981
vt 0.110303 0.438095
vt 0.110303 0.326984
vt -0.000808 0.438095
vt -0.000808 0.326984
vt 0.999191 0.326984
vt 0.999191 0.438095
vt 0.222646 0.558297
vt 0.110303 0.672108
vt 0.222226 0.673732
vt 0.110304 0.558358
vt 0.335462 0.552240
vt 0.347096 0.641628
vt 0.447461 0.564953
vt 0.451448 0.716378
vt 0.558684 0.562625
vt 0.564332 0.681518
vt 0.666645 0.569537
vt 0.652967 0.698013
vt 0.778496 0.560413
vt 0.775164 0.658139
vt 0.888080 0.558340
vt 0.888044 0.669281
vt 0.999191 0.558340
vt 0.999191 0.669451
vt -0.000808 0.669451
vt -0.000808 0.558340
vt 0.776969 0.558340
vt 0.888080 0.669581
vt 0.776969 0.674779
vt 0.888080 0.558340
vt 0.665858 0.558340
vt 0.665502 0.675835
vt 0.554717 0.558926
vt 0.553088 0.697431
vt 0.443645 0.558321
vt 0.445223 0.679785
vt 0.332541 0.558308
vt 0.334158 0.669554
vt 0.221414 0.558340
vt 0.221414 0.670506
vt 0.110303 0.558340
vt 0.110303 0.669451
vt -0.000808 0.558340
vt -0.000808 0.669451
vt 0.999191 0.669451
vt 0.999191 0.558340
vt 0.999191 0.660317
vt -0.000808 0.660317
vt 0.999191 0.336118
vt -0.000808 0.336118
vn 0.0000 -0.0015 1.0000
vn 0.0059 -0.2061 -0.9785
vn 0.0000 0.9996 0.0275
vn 0.0000 -0.9800 -0.1991
vn -0.0210 -0.9998 0.0002
vn -0.4529 -0.8855 0.1039
vn -0.1353 -0.9269 -0.3500
vn 0.4030 -0.8894 -0.2157
vn -0.3434 -0.9207 0.1856
vn 0.2262 -0.9711 -0.0760
vn 0.2437 -0.9696 -0.0236
vn 0.0953 -0.9850 0.1437
vn 0.0000 1.0000 0.0000
vn 0.0005 0.9997 0.0254
vn 0.0017 0.9939 0.1106
vn 0.0014 0.9951 0.0986
vn -0.0036 0.9983 0.0580
vn 0.0000 0.9962 0.0869
vn 0.0000 0.9963 0.0864
vn 0.0000 0.9977 0.0671
vn -0.0363 0.0002 -0.9993
vn -0.4779 0.0840 -0.8744
vn 0.4682 -0.3617 -0.8062
vn -0.5065 0.3564 -0.7851
vn 0.3409 0.0467 -0.9390
vn -0.0644 0.2513 -0.9658
vn 0.0083 0.1085 -0.9941
vn 0.1567 0.0815 -0.9843
vn 0.0187 0.0000 0.9998
vn 0.0807 0.0051 0.9967
vn 0.3034 -0.0574 0.9511
vn -0.0929 -0.6620 0.7437
vn 0.2061 0.1021 0.9732
vn -0.2047 -0.3282 0.9222
vn -0.4772 -0.0661 0.8763
vn 0.2072 0.1153 0.9715
vn 0.1478 0.1894 -0.9707
vn 0.3315 -0.1883 -0.9245
vn -0.0170 0.2786 -0.9603
vn 0.0887 -0.2642 -0.9604
vn -0.0945 0.2081 -0.9735
vn -0.1636 -0.1556 -0.9742
vn 0.0512 0.3455 -0.9370
vn 0.2082 -0.0224 -0.9778
vn -0.0025 0.0724 -0.9974
vn -0.2816 -0.2523 -0.9258
vn -0.0365 0.5252 -0.8502
vn 0.4528 -0.0746 -0.8885
vn -0.0429 0.0316 -0.9986
vn -0.5548 -0.0232 -0.8316
vn -0.0283 0.0000 -0.9996
vn -0.0606 0.0000 -0.9982
vn 0.0241 -0.0217 -0.9995
vn 0.0024 0.0037 -1.0000
vn -0.0531 0.1734 0.9834
vn -0.1906 -0.4089 0.8925
vn -0.0099 0.3091 0.9510
vn -0.1551 -0.0827 0.9844
vn -0.2112 0.1385 0.9676
vn -0.0337 0.0710 0.9969
vn 0.1651 0.0178 0.9861
vn 0.3116 0.1380 0.9402
vn 0.1104 0.3922 0.9132
vn -0.2804 0.0117 0.9598
vn -0.0190 0.2541 0.9670
vn 0.1209 -0.1687 0.9782
vn 0.0095 0.0241 0.9997
vn 0.2407 -0.0053 0.9706
vn 0.0000 0.0000 1.0000
vn 0.0241 0.0000 0.9997
vn -0.0012 0.0052 1.0000
vn -0.0063 -0.0063 1.0000
vn 0.0262 -0.9866 0.1609
vn 0.2022 -0.9726 -0.1145
vn -0.3206 -0.9263 0.1981
vn -0.2705 -0.8780 0.3949
vn 0.5878 -0.8089 0.0097
vn 0.4224 -0.8900 0.1718
vn -0.3239 -0.8513 0.4128
vn 0.2814 -0.8711 -0.4024
vn 0.1156 -0.9651 0.2349
vn -0.1755 -0.9764 0.1261
vn -0.3189 -0.8761 0.3616
vn -0.2029 -0.9603 0.1916
vn 0.0329 -0.9990 0.0294
vn -0.2840 -0.9588 -0.0067
vn 0.0011 -1.0000 0.0000
vn -0.0282 -0.9996 0.0000
vn 0.0235 -0.9996 -0.0158
vn 0.0077 -0.9999 -0.0077
vn -0.0388 0.9985 -0.0399
vn -0.0025 0.9991 -0.0424
vn -0.1456 0.9746 -0.1703
vn -0.0098 0.9999 -0.0098
vn 0.2229 0.9692 0.1043
vn -0.1268 0.9831 -0.1323
vn 0.0748 0.9931 0.0898
vn 0.0915 0.9949 -0.0435
vn -0.0427 0.9991 -0.0000
vn 0.0460 0.9989 0.0006
vn -0.0012 1.0000 -0.0012
vn 0.0015 0.0000 1.0000
vn -0.1599 0.0000 -0.9871
vn -0.0283 0.9996 0.0000
vn -0.1601 -0.9871 0.0000
vn -0.1334 -0.9845 0.1138
vn 0.0435 -0.9354 -0.3509
vn -0.2884 -0.9331 -0.2150
vn -0.1212 -0.9748 0.1872
vn 0.0173 -0.9976 -0.0663
vn 0.1518 -0.9882 -0.0215
vn 0.0394 -0.9888 0.1438
vn 0.4938 -0.8470 -0.1969
vn 0.0254 0.9994 0.0254
vn 0.0872 0.9901 0.1097
vn -0.0126 0.9951 0.0985
vn -0.0452 0.9973 0.0578
vn 0.0271 0.9958 0.0870
vn -0.0006 0.9963 0.0864
vn -0.0214 0.9975 0.0671
vn -0.0424 0.9987 0.0275
vn -0.1278 0.0924 -0.9875
vn 0.0415 -0.4053 -0.9133
vn -0.1901 0.3656 -0.9112
vn -0.1695 0.0703 -0.9830
vn 0.0822 0.2439 -0.9663
vn 0.1459 0.1042 -0.9838
vn 0.0471 0.0789 -0.9958
vn 0.4893 -0.2030 -0.8482
vn 0.0238 0.0051 0.9997
vn 0.0159 -0.0583 0.9982
vn -0.3581 -0.5942 0.7202
vn 0.5424 0.0790 0.8364
vn -0.3455 -0.3136 0.8845
vn 0.1846 -0.0234 0.9825
vn -0.2793 0.1348 0.9507
vn 0.0983 -0.0015 0.9952
vn 0.3424 -0.0201 -0.9394
vn 0.1566 0.0036 -0.9877
vn 0.0856 0.1912 -0.9778
vn 0.0134 -0.1947 -0.9808
vn -0.1757 0.2754 -0.9452
vn -0.0493 -0.2614 -0.9640
vn 0.2055 0.2088 -0.9561
vn 0.3404 -0.1637 -0.9259
vn -0.3014 0.3311 -0.8941
vn -0.5286 -0.0077 -0.8488
vn 0.4632 0.0555 -0.8845
vn 0.5075 -0.1451 -0.8493
vn -0.5008 0.4668 -0.7289
vn -0.4814 -0.1150 -0.8689
vn -0.0608 0.0316 -0.9976
vn -0.0363 -0.0239 -0.9991
vn 0.0024 0.0000 -1.0000
vn 0.0060 0.0000 -1.0000
vn -0.2170 0.0050 0.9762
vn 0.2084 -0.0062 0.9780
vn -0.1560 0.1716 0.9727
vn -0.4610 -0.3839 0.8001
vn -0.0470 0.3088 0.9500
vn -0.2166 -0.0836 0.9727
vn 0.3116 0.1408 0.9397
vn 0.2103 0.0473 0.9765
vn -0.2804 0.0185 0.9597
vn -0.1456 0.1526 0.9775
vn 0.1254 0.3915 0.9116
vn 0.3049 0.0224 0.9521
vn 0.2333 0.2470 0.9405
vn 0.0796 -0.1694 0.9823
vn 0.0241 0.0241 0.9994
vn 0.0187 -0.0054 0.9998
vn -0.0063 0.0000 1.0000
vn 0.2035 -0.9790 -0.0155
vn 0.0968 -0.9953 -0.0077
vn -0.2776 -0.9480 0.1557
vn 0.2418 -0.9637 -0.1129
vn 0.4221 -0.8627 0.2784
vn 0.1963 -0.8937 0.4034
vn 0.2990 -0.9543 0.0010
vn -0.3451 -0.9250 0.1593
vn -0.1387 -0.8873 0.4398
vn 0.3847 -0.8387 -0.3854
vn -0.2053 -0.9426 0.2633
vn -0.1296 -0.9835 0.1259
vn -0.2708 -0.8905 0.3657
vn -0.4478 -0.8769 0.1746
vn -0.0282 -0.9992 0.0294
vn -0.0211 -0.9998 -0.0071
vn 0.0077 -1.0000 0.0000
vn 0.0000 -1.0000 0.0000
vn 0.0000 1.0000 -0.0012
vn 0.0000 0.9992 -0.0399
vn -0.0097 0.9991 -0.0423
vn -0.1263 0.9772 -0.1710
vn -0.0036 0.9999 -0.0098
vn 0.0911 0.9903 0.1048
vn 0.0011 0.9911 -0.1333
vn 0.0458 0.9949 0.0895
vn 0.0018 0.9990 -0.0437
vn 0.0006 1.0000 0.0006
g Cube_Cube.001_Material.004
usemtl Material.004
s off
f 63/1/1 24/2/1 80/3/1
f 42/4/2 40/5/2 60/6/2
f 32/7/3 103/8/3 119/9/3
f 40/10/4 81/11/4 99/12/4
f 6/13/5 85/14/5 84/15/5
f 33/16/6 87/17/6 85/14/6
f 34/18/7 89/19/7 87/17/7
f 35/20/8 91/21/8 89/19/8
f 36/22/9 93/23/9 91/21/9
f 37/24/10 95/25/10 93/23/10
f 38/26/11 97/27/11 95/25/11
f 39/28/12 99/12/12 97/27/12
f 1/29/13 105/30/13 102/31/13
f 25/32/14 107/33/14 105/30/14
f 26/34/15 109/35/15 107/33/15
f 27/36/16 111/37/16 109/35/16
f 28/38/17 113/39/17 111/37/17
f 29/40/18 115/41/18 113/39/18
f 30/42/19 117/43/19 115/41/19
f 31/44/20 119/9/20 117/43/20
f 46/45/21 6/46/21 43/47/21
f 48/48/22 33/49/22 46/45/22
f 50/50/23 34/51/23 48/48/23
f 52/52/24 35/53/24 50/50/24
f 54/54/25 36/55/25 52/52/25
f 56/56/26 37/57/26 54/54/26
f 58/58/27 38/59/27 56/56/27
f 60/6/28 39/60/28 58/58/28
f 66/61/29 4/62/29 61/63/29
f 68/64/30 17/65/30 66/61/30
f 70/66/31 18/67/31 68/64/31
f 72/68/32 19/69/32 70/66/32
f 74/70/33 20/71/33 72/68/33
f 76/72/34 21/73/34 74/70/34
f 78/74/35 22/75/35 76/72/35
f 80/3/36 23/76/36 78/74/36
f 25/77/37 57/78/37 26/79/37
f 59/80/38 58/58/38 57/78/38
f 26/79/39 55/81/39 27/82/39
f 57/78/40 56/56/40 55/81/40
f 27/82/41 53/83/41 28/84/41
f 55/81/42 54/54/42 53/83/42
f 28/84/43 51/85/43 29/86/43
f 53/83/44 52/52/44 51/85/44
f 29/86/45 49/87/45 30/88/45
f 51/85/46 50/50/46 49/87/46
f 30/88/47 47/89/47 31/90/47
f 49/87/48 48/48/48 47/89/48
f 31/90/49 45/91/49 32/92/49
f 47/89/50 46/45/50 45/91/50
f 32/92/51 44/93/51 5/94/51
f 45/91/52 43/47/52 44/93/52
f 1/95/53 59/80/53 25/77/53
f 41/96/54 60/6/54 59/80/54
f 9/97/55 77/98/55 10/99/55
f 79/100/56 78/74/56 77/98/56
f 10/99/57 75/101/57 11/102/57
f 77/98/58 76/72/58 75/101/58
f 11/102/59 73/103/59 12/104/59
f 75/101/60 74/70/60 73/103/60
f 12/104/61 71/105/61 13/106/61
f 73/103/62 72/68/62 71/105/62
f 13/106/63 69/107/63 14/108/63
f 71/105/64 70/66/64 69/107/64
f 14/108/65 67/109/65 15/110/65
f 69/107/66 68/64/66 67/109/66
f 15/110/67 65/111/67 16/112/67
f 67/109/68 66/61/68 65/111/68
f 16/112/69 62/113/69 3/114/69
f 65/111/70 61/63/70 62/113/70
f 7/115/71 79/100/71 9/97/71
f 64/116/72 80/3/72 79/100/72
f 98/117/73 17/118/73 18/119/73
f 97/27/74 100/120/74 98/117/74
f 96/121/75 18/119/75 19/122/75
f 95/25/76 98/117/76 96/121/76
f 94/123/77 19/122/77 20/124/77
f 93/23/78 96/121/78 94/123/78
f 92/125/79 20/124/79 21/126/79
f 91/21/80 94/123/80 92/125/80
f 90/127/81 21/126/81 22/128/81
f 89/19/82 92/125/82 90/127/82
f 88/129/83 22/128/83 23/130/83
f 87/17/84 90/127/84 88/129/84
f 86/131/85 23/130/85 24/132/85
f 85/14/86 88/129/86 86/131/86
f 83/133/87 24/132/87 8/134/87
f 84/15/88 86/131/88 83/133/88
f 100/120/89 4/135/89 17/118/89
f 99/12/90 82/136/90 100/120/90
f 118/137/91 9/138/91 10/139/91
f 117/43/13 120/140/13 118/137/13
f 116/141/92 10/139/92 11/142/92
f 115/41/13 118/137/13 116/141/13
f 114/143/93 11/142/93 12/144/93
f 113/39/94 116/141/94 114/143/94
f 112/145/95 12/144/95 13/146/95
f 111/37/96 114/143/96 112/145/96
f 110/147/97 13/146/97 14/148/97
f 109/35/98 112/145/98 110/147/98
f 108/149/99 14/148/99 15/150/99
f 107/33/100 110/147/100 108/149/100
f 106/151/13 15/150/13 16/152/13
f 105/30/13 108/149/13 106/151/13
f 101/153/13 16/152/13 3/154/13
f 102/31/13 106/151/13 101/153/13
f 120/140/101 7/155/101 9/138/101
f 119/9/13 104/156/13 120/140/13
f 63/1/102 8/157/102 24/2/102
f 42/4/103 2/158/103 40/5/103
f 32/7/104 5/159/104 103/8/104
f 40/10/105 2/160/105 81/11/105
f 6/13/106 33/16/106 85/14/106
f 33/16/107 34/18/107 87/17/107
f 34/18/108 35/20/108 89/19/108
f 35/20/109 36/22/109 91/21/109
f 36/22/110 37/24/110 93/23/110
f 37/24/111 38/26/111 95/25/111
f 38/26/112 39/28/112 97/27/112
f 39/28/113 40/10/113 99/12/113
f 1/29/114 25/32/114 105/30/114
f 25/32/115 26/34/115 107/33/115
f 26/34/116 27/36/116 109/35/116
f 27/36/117 28/38/117 111/37/117
f 28/38/118 29/40/118 113/39/118
f 29/40/119 30/42/119 115/41/119
f 30/42/120 31/44/120 117/43/120
f 31/44/121 32/7/121 119/9/121
f 46/45/122 33/49/122 6/46/122
f 48/48/123 34/51/123 33/49/123
f 50/50/124 35/53/124 34/51/124
f 52/52/125 36/55/125 35/53/125
f 54/54/126 37/57/126 36/55/126
f 56/56/127 38/59/127 37/57/127
f 58/58/128 39/60/128 38/59/128
f 60/6/129 40/5/129 39/60/129
f 66/61/130 17/65/130 4/62/130
f 68/64/131 18/67/131 17/65/131
f 70/66/132 19/69/132 18/67/132
f 72/68/133 20/71/133 19/69/133
f 74/70/134 21/73/134 20/71/134
f 76/72/135 22/75/135 21/73/135
f 78/74/136 23/76/136 22/75/136
f 80/3/137 24/2/137 23/76/137
f 25/77/138 59/80/138 57/78/138
f 59/80/139 60/6/139 58/58/139
f 26/79/140 57/78/140 55/81/140
f 57/78/141 58/58/141 56/56/141
f 27/82/142 55/81/142 53/83/142
f 55/81/143 56/56/143 54/54/143
f 28/84/144 53/83/144 51/85/144
f 53/83/145 54/54/145 52/52/145
f 29/86/146 51/85/146 49/87/146
f 51/85/147 52/52/147 50/50/147
f 30/88/148 49/87/148 47/89/148
f 49/87/149 50/50/149 48/48/149
f 31/90/150 47/89/150 45/91/150
f 47/89/151 48/48/151 46/45/151
f 32/92/152 45/91/152 44/93/152
f 45/91/153 46/45/153 43/47/153
f 1/95/154 41/96/154 59/80/154
f 41/96/155 42/4/155 60/6/155
f 9/97/156 79/100/156 77/98/156
f 79/100/157 80/3/157 78/74/157
f 10/99/158 77/98/158 75/101/158
f 77/98/159 78/74/159 76/72/159
f 11/102/160 75/101/160 73/103/160
f 75/101/161 76/72/161 74/70/161
f 12/104/162 73/103/162 71/105/162
f 73/103/163 74/70/163 72/68/163
f 13/106/164 71/105/164 69/107/164
f 71/105/165 72/68/165 70/66/165
f 14/108/166 69/107/166 67/109/166
f 69/107/167 70/66/167 68/64/167
f 15/110/168 67/109/168 65/111/168
f 67/109/169 68/64/169 66/61/169
f 16/112/170 65/111/170 62/113/170
f 65/111/171 66/61/171 61/63/171
f 7/115/172 64/116/172 79/100/172
f 64/116/69 63/1/69 80/3/69
f 98/117/173 100/120/173 17/118/173
f 97/27/174 99/12/174 100/120/174
f 96/121/175 98/117/175 18/119/175
f 95/25/176 97/27/176 98/117/176
f 94/123/177 96/121/177 19/122/177
f 93/23/178 95/25/178 96/121/178
f 92/125/179 94/123/179 20/124/179
f 91/21/180 93/23/180 94/123/180
f 90/127/181 92/125/181 21/126/181
f 89/19/182 91/21/182 92/125/182
f 88/129/183 90/127/183 22/128/183
f 87/17/184 89/19/184 90/127/184
f 86/131/185 88/129/185 23/130/185
f 85/14/186 87/17/186 88/129/186
f 83/133/187 86/131/187 24/132/187
f 84/15/188 85/14/188 86/131/188
f 100/120/189 82/136/189 4/135/189
f 99/12/190 81/11/190 82/136/190
f 118/137/191 120/140/191 9/138/191
f 117/43/13 119/9/13 120/140/13
f 116/141/192 118/137/192 10/139/192
f 115/41/13 117/43/13 118/137/13
f 114/143/193 116/141/193 11/142/193
f 113/39/13 115/41/13 116/141/13
f 112/145/194 114/143/194 12/144/194
f 111/37/195 113/39/195 114/143/195
f 110/147/196 112/145/196 13/146/196
f 109/35/197 111/37/197 112/145/197
f 108/149/198 110/147/198 14/148/198
f 107/33/199 109/35/199 110/147/199
f 106/151/13 108/149/13 15/150/13
f 105/30/200 107/33/200 108/149/200
f 101/153/13 106/151/13 16/152/13
f 102/31/13 105/30/13 106/151/13
f 120/140/13 104/156/13 7/155/13
f 119/9/13 103/8/13 104/156/13
